<svg xmlns="http://www.w3.org/2000/svg" width="26" height="26" viewBox="0 0 26 26" fill="none">
  <path d="M12.1876 21.2V13.4666L5.41672 9.54582V17.0916C5.41672 17.1472 5.43061 17.1993 5.4584 17.2479C5.48617 17.2965 5.52783 17.3382 5.58339 17.3729L12.1876 21.2ZM13.8125 21.2L20.4167 17.3729C20.4723 17.3382 20.5139 17.2965 20.5417 17.2479C20.5695 17.1993 20.5834 17.1472 20.5834 17.0916V9.54582L13.8125 13.4666V21.2ZM13.0001 12.0667L19.6897 8.20002L13.1667 4.42709C13.1112 4.39237 13.0556 4.37501 13.0001 4.37501C12.9445 4.37501 12.8889 4.39237 12.8334 4.42709L6.31044 8.20002L13.0001 12.0667ZM4.77092 18.8C4.46258 18.6222 4.22231 18.3847 4.0501 18.0875C3.87786 17.7903 3.79175 17.4639 3.79175 17.1083V8.89167C3.79175 8.53612 3.87786 8.20974 4.0501 7.91253C4.22231 7.6153 4.46258 7.3778 4.77092 7.20002L12.0209 3.02713C12.3292 2.84936 12.6556 2.76047 13.0001 2.76047C13.3445 2.76047 13.6709 2.84936 13.9792 3.02713L21.2292 7.20002C21.5375 7.3778 21.7778 7.6153 21.95 7.91253C22.1222 8.20974 22.2084 8.53612 22.2084 8.89167V17.1083C22.2084 17.4639 22.1222 17.7903 21.95 18.0875C21.7778 18.3847 21.5375 18.6222 21.2292 18.8L13.9792 22.9729C13.6709 23.1506 13.3445 23.2395 13.0001 23.2395C12.6556 23.2395 12.3292 23.1506 12.0209 22.9729L4.77092 18.8Z" fill="black" fill-opacity="0.6"/>
</svg>